<svg xmlns="http://www.w3.org/2000/svg" width="101" height="101" viewBox="0 0 101 101" version="1.1"><path d="M 35.762 5.880 C 28.194 8.381, 21.370 12.858, 15.229 19.352 C 6.835 28.226, 3 38.182, 3 51.092 C 3 64.957, 7.566 75.469, 17.846 85.273 C 27.966 94.924, 38.769 98.630, 54.215 97.751 C 65.763 97.094, 75.498 92.662, 83.942 84.218 C 107.262 60.898, 100.428 22.552, 70.410 8.297 C 63.292 4.917, 61.895 4.612, 52.102 4.311 C 43.726 4.053, 40.295 4.382, 35.762 5.880 M 43.045 13.092 C 31.308 15.393, 20.992 23.574, 15.674 34.799 C 12.802 40.864, 12.500 42.402, 12.500 51 C 12.500 59.598, 12.802 61.136, 15.674 67.201 C 27.419 91.991, 59.752 97.276, 77.938 77.377 C 92.141 61.837, 92.143 40.165, 77.943 24.628 C 72.531 18.707, 64.982 14.498, 57.114 13.015 C 50.989 11.861, 49.280 11.870, 43.045 13.092 M 41.240 28.743 C 28.040 34.188, 22.283 49.148, 28.549 61.722 C 35.513 75.696, 54.133 79.426, 66.042 69.232 C 76.184 60.551, 77.442 45.985, 68.938 35.721 C 62.650 28.132, 50.277 25.014, 41.240 28.743" stroke="none" fill="#fcfcfc" fill-rule="evenodd"/></svg>