<svg xmlns="http://www.w3.org/2000/svg" width="101" height="101" viewBox="0 0 101 101" version="1.1"><path d="M 35.772 6.345 C 22.855 10.747, 13.340 19.462, 7.482 32.259 C -6.370 62.515, 16.804 98.044, 50.355 97.988 C 66.924 97.961, 81.880 89.954, 90.954 76.256 C 100.325 62.108, 100.349 40.569, 91.009 26.014 C 84.662 16.123, 72.775 7.570, 61.885 5.060 C 54.183 3.284, 43.161 3.826, 35.772 6.345 M 43.270 13.054 C 32.472 15.185, 21.110 23.847, 16.596 33.388 C 4.937 58.035, 19.462 85.531, 46.198 89.423 C 61.660 91.674, 78.767 82.010, 85.890 67 C 88.188 62.157, 88.500 60.247, 88.500 51 C 88.500 41.753, 88.188 39.843, 85.890 35 C 80.580 23.811, 70.225 15.624, 58.201 13.109 C 52.234 11.860, 49.371 11.850, 43.270 13.054 M 46.655 22.829 C 45.203 24.434, 45 27.903, 45 51.174 C 45 75.592, 45.145 77.821, 46.829 79.345 C 48.968 81.281, 53.084 81.516, 54.800 79.800 C 56.511 78.089, 56.511 23.911, 54.800 22.200 C 53.007 20.407, 48.534 20.752, 46.655 22.829 M 30.557 37.223 C 28.322 40.412, 28.322 61.588, 30.557 64.777 C 32.272 67.226, 36.811 67.789, 38.800 65.800 C 40.469 64.131, 40.469 37.869, 38.800 36.200 C 36.811 34.211, 32.272 34.774, 30.557 37.223 M 62.557 37.223 C 60.322 40.412, 60.322 61.588, 62.557 64.777 C 64.272 67.226, 68.811 67.789, 70.800 65.800 C 72.469 64.131, 72.469 37.869, 70.800 36.200 C 68.811 34.211, 64.272 34.774, 62.557 37.223" stroke="none" fill="#fcfcfc" fill-rule="evenodd"/></svg>