<svg xmlns="http://www.w3.org/2000/svg" width="101" height="101" viewBox="0 0 101 101" version="1.1"><path d="M 36.798 5.931 C 9.835 14.552, -3.999 44.663, 7.482 69.741 C 13.508 82.904, 23.842 92.072, 37.239 96.141 C 42.943 97.874, 45.922 98.172, 53.542 97.773 C 61.606 97.352, 63.891 96.799, 70.449 93.685 C 78.895 89.673, 87.752 81.986, 91.712 75.228 C 100.359 60.473, 100.068 40.132, 91.009 26.014 C 84.572 15.983, 72.930 7.606, 61.888 5.061 C 55.030 3.480, 43.179 3.891, 36.798 5.931 M 41.024 13.542 C 33.365 15.686, 28.087 19.030, 22.204 25.467 C 15.286 33.036, 12.697 39.989, 12.697 51 C 12.697 62.286, 15.281 69.029, 22.657 76.996 C 41.526 97.377, 73.903 92.259, 85.890 67 C 88.188 62.157, 88.500 60.247, 88.500 51 C 88.500 41.753, 88.188 39.843, 85.890 35 C 77.839 18.034, 58.321 8.699, 41.024 13.542 M 39.455 30.455 C 34.553 35.356, 37.931 43, 45 43 C 49.385 43, 53 39.530, 53 35.320 C 53 31.878, 48.762 28, 45 28 C 43.052 28, 41.002 28.907, 39.455 30.455 M 57.635 45.073 C 55.602 46.671, 55 48.027, 55 51 C 55 53.973, 55.602 55.329, 57.635 56.927 C 59.084 58.067, 61.273 59, 62.500 59 C 63.727 59, 65.916 58.067, 67.365 56.927 C 69.398 55.329, 70 53.973, 70 51 C 70 48.027, 69.398 46.671, 67.365 45.073 C 65.916 43.933, 63.727 43, 62.500 43 C 61.273 43, 59.084 43.933, 57.635 45.073 M 39.073 61.635 C 37.933 63.084, 37 65.354, 37 66.680 C 37 70.122, 41.238 74, 45 74 C 48.762 74, 53 70.122, 53 66.680 C 53 62.470, 49.385 59, 45 59 C 42.027 59, 40.671 59.602, 39.073 61.635" stroke="none" fill="#fcfcfc" fill-rule="evenodd"/></svg>