<svg xmlns="http://www.w3.org/2000/svg" width="101" height="101" viewBox="0 0 101 101" version="1.1"><path d="M 36.798 5.931 C 19.482 11.467, 6.670 26.423, 3.877 44.360 C 0.919 63.359, 11.891 84.417, 29.169 92.905 C 38.714 97.593, 48.746 99.392, 57.302 97.949 C 73.011 95.299, 87.865 84.154, 94.195 70.266 C 98.244 61.381, 99.198 48.328, 96.519 38.433 C 92.254 22.676, 77.775 8.723, 61.888 5.061 C 55.030 3.480, 43.179 3.891, 36.798 5.931 M 43.270 13.054 C 32.488 15.182, 21.644 23.421, 16.660 33.272 C 2.340 61.574, 26.330 94.536, 57.198 88.971 C 69.850 86.690, 80.368 78.635, 85.890 67 C 88.188 62.157, 88.500 60.247, 88.500 51 C 88.500 41.753, 88.188 39.843, 85.890 35 C 80.434 23.504, 69.888 15.344, 57.566 13.087 C 50.908 11.867, 49.302 11.864, 43.270 13.054 M 40.698 22.444 C 26.883 27.372, 18.077 42.419, 20.939 56.206 C 23.237 67.276, 31.990 77.237, 41.818 79.966 C 52.988 83.069, 63.935 80.213, 72.074 72.074 C 80.688 63.460, 83.292 52.096, 79.324 40.428 C 77.045 33.726, 68.274 24.955, 61.572 22.676 C 55.686 20.674, 45.962 20.566, 40.698 22.444 M 42.500 33.164 C 35.518 37.016, 31.679 43.341, 31.672 51.004 C 31.665 58.665, 35.534 65.107, 42.250 68.615 L 45 70.051 45 51.026 C 45 40.562, 44.888 32.014, 44.750 32.030 C 44.612 32.047, 43.600 32.557, 42.500 33.164 M 56 51.031 C 56 61.464, 56.382 70, 56.850 70 C 59.019 70, 66.153 63.620, 67.973 60.053 C 72.115 51.935, 69.746 40.872, 62.759 35.706 C 55.726 30.505, 56 29.884, 56 51.031" stroke="none" fill="#fffcfc" fill-rule="evenodd"/><path d="" stroke="none" fill="#fcfcfc" fill-rule="evenodd"/></svg>